<?xml version="1.0" encoding="utf-8"?>
<!-- Generator: Adobe Illustrator 26.5.0, SVG Export Plug-In . SVG Version: 6.00 Build 0)  -->
<svg version="1.1" id="Layer_1" xmlns="http://www.w3.org/2000/svg" xmlns:xlink="http://www.w3.org/1999/xlink" x="0px" y="0px"
	 viewBox="0 0 438 93" style="enable-background:new 0 0 438 93;" xml:space="preserve">
<style type="text/css">
	.st0{clip-path:url(#SVGID_00000154414196719022424740000015563643423809119402_);}
	.st1{fill:#D1D3D3;}
	.st2{fill:#F07C3B;}
</style>
<g>
	<defs>
		<rect id="SVGID_1_" x="223.3" y="42.1" width="46.4" height="50.6"/>
	</defs>
	<clipPath id="SVGID_00000172434761041506284790000002468580116007139481_">
		<use xlink:href="#SVGID_1_"  style="overflow:visible;"/>
	</clipPath>
	<g style="clip-path:url(#SVGID_00000172434761041506284790000002468580116007139481_);">
		<path class="st1" d="M268.2,60.7v14.5c-1.9-1.6-4.5-2.5-7.2-2.5s-5.2,0.9-7.2,2.5V64.6c0-1.5-0.3-2.9-1.1-4.1
			c-0.8-1.3-1.7-2.2-3-3c-1.2-0.7-2.5-1.1-4.1-1.1c-1.5,0-2.9,0.3-4.1,1.1c-1.3,0.8-2.2,1.7-3,3c-0.8,1.3-1.1,2.6-1.1,4.1v26.5
			h-14.4V43.4h14.4v3c1.6-1.4,3.5-2.4,5.5-3.2c2-0.8,4.2-1.2,6.5-1.2c3.5,0,6.6,0.8,9.4,2.5c2.8,1.7,5.1,3.9,6.8,6.8
			C267.4,54.2,268.3,57.3,268.2,60.7L268.2,60.7z"/>
		<path class="st2" d="M269.7,84.1c0,1.8-0.5,3.5-1.4,4.8c-0.6,0.9-1.4,1.7-2.3,2.3c-1.4,0.9-3,1.5-4.8,1.5c-1.8,0-3.5-0.5-4.8-1.5
			c-0.9-0.7-1.8-1.4-2.4-2.4c-0.8-1.4-1.4-3-1.4-4.7c0-1.8,0.5-3.4,1.4-4.7c1.5-2.4,4.2-3.9,7.2-3.9c3,0,5.6,1.5,7.2,3.8
			C269.3,80.6,269.8,82.3,269.7,84.1L269.7,84.1z"/>
	</g>
</g>
<path class="st1" d="M32.4,90.4H18.5l-15.7-47h13.8l8.8,26.4l8.7-26.4H48l8.7,26.4l8.8-26.4h13.8l-15.7,47H49.9L41.1,64L32.4,90.4z
	 M85.9,43.4H100v47H85.9V43.4z M93.1,38.5c-2,0-3.7-0.7-5.1-2c-1.4-1.3-2.1-3-2.1-5c0-2,0.7-3.6,2.1-5c1.4-1.4,3.1-2.1,5.1-2.1
	c2,0,3.6,0.7,5,2.1c1.4,1.3,2.1,3,2.1,5c0,2-0.7,3.7-2,5C96.7,37.8,95.1,38.5,93.1,38.5z M143.7,43.4h14.1v47h-14.2l-0.7-4.2
	c-1.2,1.6-2.6,2.9-4.4,4c-1.8,1-3.8,1.5-6.2,1.5c-3.5,0-6.8-0.7-9.9-2c-3-1.3-5.7-3.1-8-5.5c-2.3-2.4-4.1-5-5.5-8.1
	c-1.3-3.1-1.9-6.4-1.9-9.9c0-3.4,0.6-6.5,1.8-9.4s2.9-5.5,5.1-7.7c2.2-2.2,4.8-4,7.7-5.2c2.9-1.3,6-1.9,9.4-1.9
	c2.7,0,5.1,0.6,7.3,1.7c2.2,1.1,4.2,2.5,5.9,4.1L143.7,43.4z M132,78.1c1.9,0,3.7-0.5,5.3-1.5c1.6-1,2.9-2.4,3.8-4
	c0.9-1.7,1.4-3.6,1.4-5.6c0-2.1-0.5-4-1.4-5.6c-0.9-1.7-2.2-3-3.8-4c-1.6-1-3.4-1.5-5.3-1.5c-1.9,0-3.7,0.5-5.3,1.5
	c-1.6,1-2.8,2.4-3.8,4c-0.9,1.7-1.4,3.6-1.4,5.6c0,2.1,0.5,4,1.4,5.6c0.9,1.7,2.2,3,3.8,4C128.3,77.6,130.1,78.1,132,78.1z
	 M200.1,43.4h14.1v47H200l-0.7-4.2c-1.2,1.6-2.6,2.9-4.4,4c-1.8,1-3.8,1.5-6.2,1.5c-3.5,0-6.8-0.7-9.9-2c-3-1.3-5.7-3.1-8-5.5
	c-2.3-2.4-4.1-5-5.5-8.1c-1.3-3.1-1.9-6.4-1.9-9.9c0-3.4,0.6-6.5,1.8-9.4c1.2-2.9,2.9-5.5,5.1-7.7c2.2-2.2,4.8-4,7.7-5.2
	c2.9-1.3,6-1.9,9.4-1.9c2.7,0,5.1,0.6,7.3,1.7c2.2,1.1,4.2,2.5,5.9,4.1L200.1,43.4z M188.4,78.1c1.9,0,3.7-0.5,5.3-1.5
	c1.6-1,2.9-2.4,3.8-4c0.9-1.7,1.4-3.6,1.4-5.6c0-2.1-0.5-4-1.4-5.6c-0.9-1.7-2.2-3-3.8-4s-3.4-1.5-5.3-1.5c-1.9,0-3.7,0.5-5.3,1.5
	c-1.6,1-2.8,2.4-3.8,4c-0.9,1.7-1.4,3.6-1.4,5.6c0,2.1,0.5,4,1.4,5.6c0.9,1.7,2.2,3,3.8,4C184.7,77.6,186.5,78.1,188.4,78.1z"/>
<path class="st1" d="M309.9,18.4H324V89h-14.1v-4.3c-1.4,1.6-3.2,3-5.2,4c-2,1-4.2,1.6-6.8,1.6c-3.4,0-6.6-0.6-9.6-1.9
	c-3-1.3-5.6-3.1-7.9-5.3c-2.3-2.3-4-4.9-5.3-7.9c-1.3-3-1.9-6.2-1.9-9.6s0.6-6.6,1.9-9.6c1.3-3,3.1-5.6,5.3-7.9
	c2.3-2.3,4.9-4.1,7.9-5.4c3-1.3,6.2-1.9,9.6-1.9c2.5,0,4.8,0.5,6.8,1.6c2,1,3.7,2.3,5.2,4V18.4z M298.1,76.7c1.9,0,3.7-0.5,5.3-1.5
	c1.6-1,2.9-2.4,3.8-4c0.9-1.7,1.4-3.6,1.4-5.6c0-2.1-0.5-4-1.4-5.6c-0.9-1.7-2.2-3-3.8-4s-3.4-1.5-5.3-1.5s-3.7,0.5-5.3,1.5
	c-1.6,1-2.8,2.4-3.8,4c-0.9,1.7-1.4,3.6-1.4,5.6c0,2.1,0.5,4,1.4,5.6c0.9,1.7,2.2,3,3.8,4C294.4,76.2,296.2,76.7,298.1,76.7z
	 M354.9,90.2c-4.3,0-8.3-1.1-11.9-3.3c-3.5-2.2-6.4-5.2-8.5-9c-2.1-3.8-3.2-7.9-3.2-12.5c0-3.4,0.6-6.6,1.8-9.6c1.2-3,2.9-5.6,5-7.9
	c2.2-2.3,4.7-4.1,7.5-5.4c2.9-1.3,5.9-1.9,9.1-1.9c3.8,0,7.2,0.8,10.3,2.5c3.1,1.6,5.8,3.9,7.9,6.7c2.2,2.8,3.7,5.9,4.6,9.5
	c0.9,3.5,1,7.1,0.3,10.9h-31.4c0.4,1.1,1,2.1,1.7,3c0.8,0.9,1.7,1.6,2.7,2.1c1.1,0.5,2.4,0.8,3.8,0.8c1.4,0,2.6-0.3,3.8-0.9
	c1.2-0.6,2.2-1.5,3.1-2.5l14.4,3.3c-1.9,4.2-4.8,7.6-8.6,10.3C363.9,88.9,359.6,90.2,354.9,90.2z M346.1,59.8h17.6
	c-0.4-1.3-1.1-2.5-2-3.6c-0.9-1-1.9-1.9-3.1-2.4c-1.2-0.6-2.4-0.9-3.8-0.9c-1.3,0-2.6,0.3-3.8,0.9c-1.2,0.6-2.2,1.4-3.1,2.4
	C347.3,57.3,346.6,58.4,346.1,59.8z M415.7,89h-18.2l-17.1-47h15.1l11.2,30.9L417.7,42h15.1L415.7,89z"/>
</svg>
