<svg xmlns="http://www.w3.org/2000/svg" xmlns:xlink="http://www.w3.org/1999/xlink" id="Layer_1" x="0px" y="0px" viewBox="0 0 1024 1024" style="enable-background:new 0 0 1024 1024;" xml:space="preserve"><style type="text/css">	.st0{fill:#F07C3C;}	.st1{fill:none;stroke:#FFFFFF;stroke-width:1.7538;stroke-miterlimit:10;}	.st2{fill:#FFFFFF;}</style><g>	<g>		<g>			<path d="M304.5,548.2c3.4,0,3.4-5.3,0-5.3C301.1,542.9,301.1,548.2,304.5,548.2L304.5,548.2z"></path>		</g>	</g>	<g>		<g>			<path d="M365.8,467.4c3.4,0,3.4-5.3,0-5.3C362.4,462.2,362.4,467.4,365.8,467.4L365.8,467.4z"></path>		</g>	</g>	<g>		<g>			<path class="st0" d="M163.4,152.6c-1.8,72.3-0.7,144.7,3.3,216.9c4,71.9,10.9,143.7,20.7,215.1c2.3,16.7,3.9,34,9,50.2    c4.1,13.3,11.1,25.8,23.2,33.4c0.8,0.5,1.8,0.2,2.3-0.6c19.1-31.5,36.2-64.2,51.2-97.8c-1-0.1-2.1-0.3-3.1-0.4    c11.1,29.3,22.3,58.6,33.4,87.9c0.4,1.2,2.4,1.9,3.1,0.4c31.5-71.7,51.8-147.5,71.1-223.3c20.3-79.8,40.5-159.6,60.7-239.4    c11.4-45.1,22.9-90.3,34.3-135.4c0.5-2.1-2.6-3-3.2-0.9c-13.7,45.7-27.6,91.4-41.8,136.9c-14.2,45.6-28.6,91-43.3,136.4    c-14.7,45.4-29.6,90.7-44.8,135.9c-14.9,44.2-29.7,88.5-45.5,132.3c-15.5,42.9-32.4,85.4-53.1,126.1c-2.5,5-5.1,9.9-7.7,14.8    c1,0,1.9,0,2.9,0c-22.6-36.9-36.2-79.1-39.4-122.3c-0.9-12.1-1-24.2-0.2-36.3c-1,0.3-2.1,0.6-3.1,0.8    c29.6,39.7,66.4,74,108.2,100.5c10.7,6.8,21.6,13.1,32.9,18.8c10.9,5.5,22.4,11.5,34.8,7.9c11.3-3.3,21.6-11.4,30.6-18.7    c9.5-7.7,18.1-16.5,26.1-25.8c15.9-18.7,29-39.6,41.2-61c13.4-23.6,25.9-47.7,37.1-72.3c22.4-48.9,40.3-100,51.4-152.6    c11.2-53.1,15.6-108.1,10.1-162.2c-2.8-27.3-8-54.7-17.2-80.5c-7.1-20-17.8-39.6-33-54.6c-14.2-14.1-33.1-23.5-53.5-21.4    c-24.2,2.5-44.4,18.9-61.7,34.8c-31.7,29.2-57.2,65-75.4,104c-18.1,38.9-29.2,81-32.6,123.7c-3.4,43.1,1,87,14,128.2    c3.1,9.8,6.7,19.5,10.7,28.9c0.8,2,3.7,0.3,2.9-1.7c-16.6-38.9-24.9-80.9-25.4-123.1c-0.5-41.9,6.5-83.9,20.5-123.4    c14.1-39.7,35.3-77.1,62.9-109c14.3-16.5,30.5-32.6,48.7-44.9c10.2-6.9,21.7-12.6,34.1-14.1c10.2-1.3,20.7,0.4,30.1,4.6    c19,8.6,32.9,25.7,42.9,43.5c11.9,21.3,18.5,45.3,23.2,69.1c10.5,52.9,9.6,108,1.8,161.1c-7.6,51.4-22.1,101.6-41.3,149.8    c-9.8,24.6-20.8,48.6-32.9,72.2c-11.3,22.2-23.3,44.2-36.9,65.1c-13.1,20.3-27.9,39.6-46.2,55.5c-9.1,7.9-19.7,16.6-31.2,20.7    c-13.4,4.9-25.8-2.3-37.4-8.3c-43-22.4-81.9-52.7-114.2-88.9c-7.9-8.9-15.5-18.1-22.6-27.7c-1-1.3-3-0.9-3.1,0.8    c-2.6,43.4,5.3,87.2,22.7,127c5,11.5,10.8,22.6,17.4,33.3c0.6,1,2.3,1.1,2.9,0c21.3-40,38.9-81.8,54.7-124.2    c16.2-43.4,30.9-87.4,45.7-131.3c15.3-45.4,30.4-90.9,45.2-136.5c14.8-45.6,29.4-91.3,43.7-137c14.3-45.8,28.4-91.6,42.2-137.5    c1.7-5.6,3.4-11.2,5-16.8c-1.1-0.3-2.2-0.6-3.2-0.9C449,138.9,428.7,219,408.4,299.2c-10,39.6-20.1,79.2-30.1,118.8    c-9.6,38-19.3,75.9-30.3,113.5c-12.4,42.3-26.6,84.2-44.4,124.6c1,0.1,2.1,0.3,3.1,0.4c-11.1-29.3-22.3-58.6-33.4-87.9    c-0.5-1.2-2.4-1.9-3.1-0.4c-15,33.7-32.1,66.3-51.2,97.8c0.8-0.2,1.5-0.4,2.3-0.6c-23.9-15-26-48.4-29.5-73.6    c-5-35.4-9.2-71-12.7-106.6c-7-70.6-11.2-141.6-12.6-212.5c-0.8-40-0.7-80,0.3-120C166.8,150.5,163.4,150.5,163.4,152.6    L163.4,152.6z"></path>		</g>	</g>	<line class="st1" x1="104.2" y1="805.1" x2="919.8" y2="805.1"></line>	<g>		<g>			<path class="st2" d="M136.6,941.9l-16.4-64.1h6.6l13.6,53.1l13.5-53.1h5.7l13.6,53.1l13.5-53.1h6.6l-16.3,64.1h-7.6l-12.6-49.2    l-12.6,49.2H136.6z"></path>			<path class="st2" d="M204.1,888.1c-1,0-1.9-0.3-2.6-1c-0.7-0.7-1.1-1.5-1.1-2.6s0.4-1.9,1.1-2.6c0.7-0.7,1.6-1,2.6-1    c1,0,1.9,0.3,2.6,1c0.7,0.7,1.1,1.5,1.1,2.6s-0.4,1.9-1.1,2.6C206,887.8,205.1,888.1,204.1,888.1z M200.8,896.1h6.4v45.8h-6.4    V896.1z"></path>			<path class="st2" d="M255.9,896.1h6.4v45.8h-6.4l-0.2-8.5c-1.5,2.9-3.6,5.2-6.3,7c-2.7,1.8-5.9,2.7-9.6,2.7    c-3.4,0-6.5-0.6-9.4-1.9c-2.9-1.3-5.5-3-7.7-5.2c-2.2-2.2-4-4.8-5.2-7.7c-1.3-2.9-1.9-6.1-1.9-9.4c0-3.3,0.6-6.4,1.9-9.3    c1.2-2.9,2.9-5.4,5.1-7.6c2.2-2.2,4.7-3.9,7.6-5.2c2.9-1.2,6-1.9,9.3-1.9c3.8,0,7.1,0.9,10,2.7c2.8,1.8,5.1,4.2,6.8,7.1    L255.9,896.1z M239.6,936.9c3.3,0,6.1-0.8,8.4-2.4c2.4-1.6,4.2-3.8,5.4-6.5c1.3-2.7,1.9-5.7,1.9-9c0-3.4-0.6-6.4-1.9-9.1    s-3.1-4.8-5.4-6.4c-2.4-1.6-5.1-2.4-8.4-2.4c-3.2,0-6.2,0.8-8.9,2.4c-2.7,1.6-4.8,3.8-6.4,6.5c-1.6,2.7-2.4,5.7-2.4,9    c0,3.3,0.8,6.3,2.4,9c1.6,2.7,3.8,4.8,6.4,6.4C233.5,936.1,236.5,936.9,239.6,936.9z"></path>			<path class="st2" d="M309.1,896.1h6.4v45.8h-6.4l-0.2-8.5c-1.5,2.9-3.6,5.2-6.3,7c-2.7,1.8-5.9,2.7-9.6,2.7    c-3.4,0-6.5-0.6-9.4-1.9c-2.9-1.3-5.5-3-7.7-5.2c-2.2-2.2-4-4.8-5.2-7.7c-1.3-2.9-1.9-6.1-1.9-9.4c0-3.3,0.6-6.4,1.9-9.3    c1.2-2.9,2.9-5.4,5.1-7.6c2.2-2.2,4.7-3.9,7.6-5.2c2.9-1.2,6-1.9,9.3-1.9c3.8,0,7.1,0.9,10,2.7c2.8,1.8,5.1,4.2,6.8,7.1    L309.1,896.1z M292.8,936.9c3.3,0,6.1-0.8,8.4-2.4c2.4-1.6,4.2-3.8,5.4-6.5c1.3-2.7,1.9-5.7,1.9-9c0-3.4-0.6-6.4-1.9-9.1    s-3.1-4.8-5.4-6.4c-2.4-1.6-5.1-2.4-8.4-2.4c-3.2,0-6.2,0.8-8.9,2.4c-2.7,1.6-4.8,3.8-6.4,6.5c-1.6,2.7-2.4,5.7-2.4,9    c0,3.3,0.8,6.3,2.4,9c1.6,2.7,3.8,4.8,6.4,6.4C286.8,936.1,289.7,936.9,292.8,936.9z"></path>			<path class="st2" d="M364.6,913.6v28.3h-6.4v-27.1c0-2.5-0.6-4.8-1.8-6.8c-1.2-2-2.9-3.7-4.9-4.9c-2-1.2-4.3-1.8-6.8-1.8    c-2.5,0-4.7,0.6-6.8,1.8c-2.1,1.2-3.7,2.9-4.9,4.9c-1.2,2-1.8,4.3-1.8,6.8v27.1h-6.4v-45.8h6.4v6.3c1.6-2.3,3.7-4.2,6.3-5.5    c2.6-1.4,5.4-2.1,8.5-2.1c3.4,0,6.6,0.8,9.4,2.5c2.8,1.7,5.1,3.9,6.8,6.8C363.7,907,364.6,910.1,364.6,913.6z"></path>			<path class="st2" d="M371.9,947l2.8-15.5h6.4l-5,15.5H371.9z"></path>			<path class="st2" d="M414.1,941.9v-64.1h21.2c4.4,0,8.6,0.8,12.5,2.5c3.9,1.7,7.3,4,10.2,6.9c2.9,2.9,5.2,6.4,6.9,10.2    c1.7,3.9,2.5,8,2.5,12.4s-0.8,8.6-2.5,12.4c-1.7,3.9-4,7.3-6.9,10.2c-2.9,2.9-6.3,5.3-10.2,6.9c-3.9,1.7-8,2.5-12.5,2.5H414.1z     M420.5,935.5h14.8c3.5,0,6.9-0.7,10-2c3.1-1.3,5.8-3.2,8.2-5.5c2.4-2.4,4.2-5.1,5.5-8.2c1.3-3.1,2-6.4,2-10s-0.7-6.9-2-10    s-3.2-5.8-5.5-8.2c-2.4-2.4-5.1-4.2-8.2-5.5c-3.1-1.3-6.4-2-9.9-2h-14.8V935.5z"></path>			<path class="st2" d="M495.8,943.1c-4.2,0-8.1-1.1-11.5-3.3c-3.5-2.2-6.2-5.1-8.3-8.7c-2.1-3.6-3.1-7.7-3.1-12.1    c0-3.4,0.6-6.5,1.8-9.4c1.2-2.9,2.8-5.5,4.9-7.7c2.1-2.2,4.5-3.9,7.3-5.2c2.8-1.3,5.7-1.9,8.9-1.9c3.4,0,6.5,0.7,9.4,2    c2.9,1.3,5.3,3.2,7.4,5.6c2.1,2.4,3.6,5.2,4.7,8.5c1.1,3.2,1.5,6.7,1.3,10.5h-38.8c0.4,2.9,1.3,5.5,2.8,7.8s3.4,4.1,5.7,5.4    c2.3,1.3,4.9,2,7.7,2c3.1,0,5.8-0.8,8.3-2.4c2.5-1.6,4.4-3.8,5.9-6.5l6.5,1.5c-1.8,4.1-4.6,7.4-8.3,10    C504.5,941.8,500.4,943.1,495.8,943.1z M479.5,916.3H512c-0.2-2.8-1.1-5.4-2.6-7.8c-1.5-2.4-3.5-4.3-5.8-5.7    c-2.4-1.4-5-2.1-7.8-2.1c-2.8,0-5.4,0.7-7.8,2.1c-2.4,1.4-4.3,3.3-5.8,5.6C480.7,910.7,479.8,913.4,479.5,916.3z"></path>			<path class="st2" d="M548.9,941.9h-8.2L524,896h6.8l14,38.4l14-38.4h6.8L548.9,941.9z"></path>			<path class="st2" d="M594,943.1c-4.2,0-8.1-1.1-11.5-3.3c-3.5-2.2-6.2-5.1-8.3-8.7c-2.1-3.6-3.1-7.7-3.1-12.1    c0-3.4,0.6-6.5,1.8-9.4c1.2-2.9,2.8-5.5,4.9-7.7c2.1-2.2,4.5-3.9,7.3-5.2c2.8-1.3,5.7-1.9,8.9-1.9c3.4,0,6.5,0.7,9.4,2    c2.9,1.3,5.3,3.2,7.4,5.6c2.1,2.4,3.6,5.2,4.7,8.5c1.1,3.2,1.5,6.7,1.3,10.5h-38.8c0.4,2.9,1.3,5.5,2.8,7.8s3.4,4.1,5.7,5.4    c2.3,1.3,4.9,2,7.7,2c3.1,0,5.8-0.8,8.3-2.4c2.5-1.6,4.4-3.8,5.9-6.5l6.5,1.5c-1.8,4.1-4.6,7.4-8.3,10    C602.7,941.8,598.6,943.1,594,943.1z M577.7,916.3h32.6c-0.2-2.8-1.1-5.4-2.6-7.8c-1.5-2.4-3.5-4.3-5.8-5.7    c-2.4-1.4-5-2.1-7.8-2.1c-2.8,0-5.4,0.7-7.8,2.1c-2.4,1.4-4.3,3.3-5.8,5.6C579,910.7,578,913.4,577.7,916.3z"></path>			<path class="st2" d="M625,941.9v-68.7h6.4v68.7H625z"></path>			<path class="st2" d="M662.6,943.1c-4.2,0-8.1-1.1-11.5-3.3c-3.5-2.2-6.2-5.1-8.3-8.7c-2.1-3.6-3.1-7.7-3.1-12.1    c0-3.4,0.6-6.5,1.8-9.4c1.2-2.9,2.8-5.5,4.9-7.7c2.1-2.2,4.5-3.9,7.3-5.2c2.8-1.3,5.7-1.9,8.9-1.9c4.2,0,8.1,1.1,11.5,3.3    s6.2,5.1,8.3,8.7c2.1,3.7,3.1,7.7,3.1,12.2c0,3.3-0.6,6.4-1.8,9.3c-1.2,2.9-2.8,5.5-4.9,7.7c-2.1,2.2-4.5,3.9-7.3,5.2    C668.7,942.5,665.7,943.1,662.6,943.1z M662.6,936.7c3.1,0,5.9-0.8,8.4-2.5c2.5-1.6,4.5-3.8,5.9-6.5c1.4-2.7,2.2-5.6,2.2-8.7    c0-3.2-0.7-6.2-2.2-8.9c-1.5-2.7-3.4-4.9-5.9-6.5s-5.3-2.4-8.4-2.4c-3.1,0-5.9,0.8-8.4,2.5c-2.5,1.6-4.5,3.8-5.9,6.5    s-2.2,5.6-2.2,8.8c0,3.3,0.7,6.3,2.2,9c1.5,2.7,3.5,4.8,6,6.4C656.8,935.9,659.6,936.7,662.6,936.7z"></path>			<path class="st2" d="M700.1,964.8h-6.4v-68.7h6.4v8.6c1.6-2.9,3.8-5.2,6.5-7.1c2.7-1.8,6-2.7,9.8-2.7c3.3,0,6.4,0.6,9.4,1.9    c2.9,1.3,5.5,3,7.7,5.2c2.2,2.2,3.9,4.8,5.2,7.7s1.9,6,1.9,9.3c0,3.3-0.6,6.5-1.9,9.4s-3,5.5-5.2,7.7s-4.8,3.9-7.7,5.2    c-2.9,1.3-6,1.9-9.4,1.9c-3.8,0-7.1-0.9-9.8-2.7c-2.7-1.8-4.9-4.2-6.5-7.1V964.8z M716.4,901.2c-3.2,0-6,0.8-8.4,2.4    c-2.4,1.6-4.2,3.7-5.5,6.4c-1.3,2.7-1.9,5.7-1.9,9c0,3.3,0.6,6.3,1.9,9c1.3,2.7,3.1,4.9,5.4,6.5s5.2,2.4,8.4,2.4    c3.2,0,6.1-0.8,8.8-2.4c2.7-1.6,4.8-3.7,6.4-6.4s2.4-5.7,2.4-9.1c0-3.3-0.8-6.3-2.4-9c-1.6-2.7-3.7-4.9-6.4-6.5    S719.6,901.2,716.4,901.2z"></path>			<path class="st2" d="M768.9,943.1c-4.2,0-8.1-1.1-11.5-3.3c-3.5-2.2-6.2-5.1-8.3-8.7c-2.1-3.6-3.1-7.7-3.1-12.1    c0-3.4,0.6-6.5,1.8-9.4c1.2-2.9,2.8-5.5,4.9-7.7c2.1-2.2,4.5-3.9,7.3-5.2c2.8-1.3,5.7-1.9,8.9-1.9c3.4,0,6.5,0.7,9.4,2    c2.9,1.3,5.3,3.2,7.4,5.6c2.1,2.4,3.6,5.2,4.7,8.5c1.1,3.2,1.5,6.7,1.3,10.5h-38.8c0.4,2.9,1.3,5.5,2.8,7.8s3.4,4.1,5.7,5.4    c2.3,1.3,4.9,2,7.7,2c3.1,0,5.8-0.8,8.3-2.4c2.5-1.6,4.4-3.8,5.9-6.5l6.5,1.5c-1.8,4.1-4.6,7.4-8.3,10    C777.6,941.8,773.5,943.1,768.9,943.1z M752.6,916.3h32.6c-0.2-2.8-1.1-5.4-2.6-7.8c-1.5-2.4-3.5-4.3-5.8-5.7    c-2.4-1.4-5-2.1-7.8-2.1c-2.8,0-5.4,0.7-7.8,2.1c-2.4,1.4-4.3,3.3-5.8,5.6C753.8,910.7,752.9,913.4,752.6,916.3z"></path>			<path class="st2" d="M799.9,941.9v-45.8h6.4v6.3c1.6-2.3,3.7-4.2,6.3-5.5s5.4-2.1,8.5-2.1c1.8,0,3.5,0.2,5.1,0.7l-2.6,6.4    c-1.3-0.4-2.5-0.6-3.8-0.6c-2.5,0-4.7,0.6-6.8,1.8c-2.1,1.2-3.7,2.9-4.9,4.9c-1.2,2-1.8,4.3-1.8,6.8v27.1H799.9z"></path>		</g>	</g></g></svg>